<?xml version="1.0" standalone="no"?>
<!DOCTYPE svg PUBLIC "-//W3C//DTD SVG 20010904//EN"
 "http://www.w3.org/TR/2001/REC-SVG-20010904/DTD/svg10.dtd">
<svg version="1.0" xmlns="http://www.w3.org/2000/svg"
 width="625.000000pt" height="188.000000pt" viewBox="0 0 625.000000 188.000000"
 preserveAspectRatio="xMidYMid meet">

<g transform="translate(0.000000,188.000000) scale(0.100000,-0.100000)"
fill="#000000" stroke="none">
<path d="M1274 1786 c-383 -99 -654 -444 -654 -833 0 -404 243 -733 630 -855
67 -20 94 -23 245 -23 159 1 176 3 255 29 100 33 144 54 225 109 180 122 310
305 367 515 29 108 28 294 0 414 -77 319 -322 566 -642 647 -120 30 -301 29
-426 -3z m451 -121 c319 -105 526 -390 527 -725 0 -127 -19 -214 -71 -324 -91
-194 -268 -345 -481 -411 -85 -26 -270 -31 -366 -10 -243 53 -449 224 -543
448 -156 375 2 798 364 979 121 60 210 78 370 73 96 -3 136 -9 200 -30z"/>
<path d="M1540 1628 c-16 -9 -27 -26 -32 -48 -13 -67 -35 -147 -47 -168 -15
-29 -14 -42 5 -42 14 0 16 -7 11 -43 l-6 -43 42 -10 c41 -9 42 -10 41 -47 -1
-37 -1 -38 20 -20 11 10 29 27 39 38 18 20 18 20 8 -2 -6 -12 -30 -38 -53 -58
-39 -33 -41 -37 -24 -47 10 -5 32 -24 50 -40 l31 -30 -30 20 c-96 62 -186 55
-299 -21 -21 -15 -44 -27 -50 -27 -6 1 6 10 26 20 49 26 54 38 23 50 -68 26
-154 3 -201 -54 -15 -17 -34 -35 -43 -40 -14 -8 -14 -7 1 10 36 41 49 92 47
190 -1 62 -5 94 -13 94 -30 1 33 30 65 30 28 0 41 6 53 25 22 34 20 50 -10 74
-60 47 -117 8 -175 -117 -81 -173 -100 -256 -79 -332 8 -30 18 -39 72 -64 106
-49 205 -47 373 8 11 3 -2 -4 -28 -18 l-48 -24 28 -20 c15 -10 43 -27 61 -36
29 -15 33 -21 27 -44 -4 -17 5 -62 26 -129 33 -104 33 -104 48 -76 8 15 20 46
28 68 l13 40 -5 -47 c-4 -26 -24 -95 -46 -153 -30 -79 -41 -126 -45 -188 l-6
-82 40 78 c52 101 85 140 277 332 167 167 207 223 221 310 11 73 -10 118 -95
209 -43 45 -84 93 -91 106 -9 17 -11 56 -6 144 8 139 -3 175 -62 209 -42 25
-148 33 -182 15z"/>
<path d="M3725 690 c-27 -10 -41 -28 -49 -62 -9 -37 9 -76 55 -124 25 -26 41
-51 42 -70 3 -42 -27 -39 -31 4 -3 29 -6 32 -38 32 -29 0 -34 -3 -34 -24 0
-37 20 -86 40 -96 24 -13 76 -13 100 0 24 13 42 77 34 118 -4 18 -27 52 -55
81 -49 51 -62 81 -34 81 8 0 15 -9 15 -20 0 -16 7 -20 35 -20 31 0 35 3 35 26
0 38 -16 61 -51 73 -37 13 -37 13 -64 1z"/>
<path d="M3959 689 c-27 -10 -49 -46 -49 -80 0 -28 17 -57 61 -106 28 -30 39
-52 39 -74 0 -41 -24 -33 -28 9 -3 29 -6 32 -39 32 l-36 0 6 -47 c3 -32 12
-53 27 -65 22 -18 85 -24 106 -10 21 14 34 51 34 97 0 42 -5 51 -50 99 -50 53
-63 86 -35 86 8 0 15 -9 15 -20 0 -16 7 -20 35 -20 28 0 35 4 35 20 0 35 -22
69 -53 80 -34 12 -33 12 -68 -1z"/>
<path d="M4350 687 c-41 -21 -50 -52 -50 -180 0 -112 1 -119 25 -142 18 -18
35 -25 65 -25 58 0 80 25 80 95 l0 55 -35 0 c-35 0 -35 0 -35 -46 0 -32 -4
-44 -12 -42 -9 3 -14 38 -16 116 -2 95 0 112 13 112 11 0 15 -11 15 -40 0 -39
1 -40 35 -40 35 0 35 0 35 46 0 58 -12 79 -51 93 -39 14 -38 14 -69 -2z"/>
<path d="M2640 515 l0 -175 35 0 35 0 0 80 0 80 36 0 c34 0 35 1 32 33 -3 28
-7 32 -35 35 -27 3 -33 7 -33 28 0 21 5 24 35 24 33 0 35 2 35 35 l0 35 -70 0
-70 0 0 -175z"/>
<path d="M2850 515 l0 -175 35 0 35 0 0 175 0 175 -35 0 -35 0 0 -175z"/>
<path d="M2980 661 c0 -23 5 -30 23 -33 21 -3 22 -6 25 -145 l3 -143 34 0 35
0 0 145 c0 138 1 145 20 145 16 0 20 7 20 30 l0 30 -80 0 -80 0 0 -29z"/>
<path d="M3210 515 l0 -175 35 0 35 0 1 73 1 72 15 -72 15 -73 34 0 34 0 0
175 0 175 -35 0 -35 0 -1 -67 c-1 -68 -1 -68 -10 -23 -17 91 -17 90 -54 90
l-35 0 0 -175z"/>
<path d="M3460 515 l0 -175 76 0 75 0 -3 33 c-3 29 -6 32 -40 35 -37 3 -38 4
-38 43 0 38 1 39 35 39 33 0 35 2 35 35 0 33 -2 35 -35 35 -32 0 -35 2 -35 30
0 28 3 30 35 30 33 0 35 2 35 35 l0 35 -70 0 -70 0 0 -175z"/>
<path d="M4550 515 l0 -175 70 0 70 0 0 35 c0 33 -2 35 -35 35 -34 0 -35 1
-35 40 0 39 1 40 36 40 34 0 35 1 32 33 -3 28 -7 32 -35 35 -29 3 -33 7 -33
32 0 25 4 29 33 32 28 3 32 7 35 36 l3 32 -70 0 -71 0 0 -175z"/>
<path d="M4770 515 l0 -175 35 0 35 0 1 73 1 72 15 -72 15 -73 34 0 34 0 0
175 0 175 -35 0 -35 0 -1 -67 c-1 -68 -1 -68 -10 -23 -17 91 -17 90 -54 90
l-35 0 0 -175z"/>
<path d="M5010 660 c0 -23 4 -30 20 -30 19 0 20 -7 20 -145 l0 -145 35 0 35 0
0 141 c0 132 1 141 20 146 14 4 20 14 20 34 l0 29 -75 0 -75 0 0 -30z"/>
<path d="M5230 515 l0 -175 75 0 75 0 0 35 c0 34 -1 35 -40 35 l-40 0 0 40 c0
39 1 40 35 40 33 0 35 2 35 35 0 33 -2 35 -35 35 -32 0 -35 2 -35 30 0 28 3
30 35 30 33 0 35 2 35 35 l0 35 -70 0 -70 0 0 -175z"/>
<path d="M5450 515 l0 -175 35 0 35 0 0 80 c0 64 3 80 15 80 12 0 15 -16 15
-80 l0 -80 35 0 35 0 0 76 c0 41 -5 84 -10 94 -7 13 -7 21 0 25 5 3 10 33 10
65 0 79 -12 90 -101 90 l-69 0 0 -175z m104 99 c9 -23 -3 -56 -17 -51 -22 7
-21 67 2 67 5 0 12 -7 15 -16z"/>
</g>
</svg>
